HIERARCHY
ROOT pelvis
{
	OFFSET 0.000000 0.000000 0.000000
	CHANNELS 6 Xposition Yposition Zposition Xrotation Yrotation Zrotation
	JOINT l_hip
	{
		OFFSET 0.195211 -0.245059 -0.022011
		CHANNELS 3 Xrotation Yrotation Zrotation
		JOINT l_knee
		{
			OFFSET 0.083896 -0.996307 -0.018298
			CHANNELS 3 Xrotation Yrotation Zrotation
			JOINT l_ankle
			{
				OFFSET -0.031606 -1.048662 -0.119000
				CHANNELS 3 Xrotation Yrotation Zrotation
				JOINT l_foot
				{
					OFFSET 0.063841 -0.149483 0.312863
					CHANNELS 3 Xrotation Yrotation Zrotation
					End Site
					{
						OFFSET 0.000000 0.000000 0.000000
					}
				}
			}
		}
	}
	JOINT r_hip
	{
		OFFSET -0.188785 -0.243354 -0.013119
		CHANNELS 3 Xrotation Yrotation Zrotation
		JOINT r_knee
		{
			OFFSET -0.098896 -1.013926 -0.025127
			CHANNELS 3 Xrotation Yrotation Zrotation
			JOINT r_ankle
			{
				OFFSET 0.038376 -1.049454 -0.114596
				CHANNELS 3 Xrotation Yrotation Zrotation
				JOINT r_foot
				{
					OFFSET -0.060300 -0.126955 0.322518
					CHANNELS 3 Xrotation Yrotation Zrotation
					End Site
					{
						OFFSET 0.000000 0.000000 0.000000
					}
				}
			}
		}
	}
	JOINT spine1
	{
		OFFSET -0.006861 0.282462 -0.060688
		CHANNELS 3 Xrotation Yrotation Zrotation
		JOINT spine2
		{
			OFFSET 0.009796 0.349212 -0.004686
			CHANNELS 3 Xrotation Yrotation Zrotation
			JOINT spine3
			{
				OFFSET 0.005545 0.134239 0.076232
				CHANNELS 3 Xrotation Yrotation Zrotation
				JOINT neck
				{
					OFFSET -0.005369 0.569656 -0.136135
					CHANNELS 3 Xrotation Yrotation Zrotation
					JOINT head
					{
						OFFSET 0.009621 0.170484 0.137338
						CHANNELS 3 Xrotation Yrotation Zrotation
						End Site
						{
							OFFSET 0.000000 0.000000 0.000000
						}
					}
				}
				JOINT l_collar
				{
					OFFSET 0.205981 0.322192 -0.100872
					CHANNELS 3 Xrotation Yrotation Zrotation
					JOINT l_shoulder
					{
						OFFSET 0.233388 0.086823 -0.019950
						CHANNELS 3 Xrotation Yrotation Zrotation
						JOINT l_elbow
						{
							OFFSET 0.687295 -0.032736 -0.075278
							CHANNELS 3 Xrotation Yrotation Zrotation
							JOINT l_wrist
							{
								OFFSET 0.651109 0.024639 0.000120
								CHANNELS 3 Xrotation Yrotation Zrotation
								JOINT l_hand
								{
									OFFSET 0.217934 -0.026487 -0.036124
									CHANNELS 3 Xrotation Yrotation Zrotation
									End Site
									{
										OFFSET 0.000000 0.000000 0.000000
									}
								}
							}
						}
					}
				}
				JOINT r_collar
				{
					OFFSET -0.210726 0.316244 -0.114374
					CHANNELS 3 Xrotation Yrotation Zrotation
					JOINT r_shoulder
					{
						OFFSET -0.244017 0.089684 -0.026814
						CHANNELS 3 Xrotation Yrotation Zrotation
						JOINT r_elbow
						{
							OFFSET -0.672913 -0.035979 -0.055153
							CHANNELS 3 Xrotation Yrotation Zrotation
							JOINT r_wrist
							{
								OFFSET -0.670689 0.023586 -0.009661
								CHANNELS 3 Xrotation Yrotation Zrotation
								JOINT r_hand
								{
									OFFSET -0.219937 -0.019827 -0.028502
									CHANNELS 3 Xrotation Yrotation Zrotation
									End Site
									{
										OFFSET 0.000000 0.000000 0.000000
									}
								}
							}
						}
					}
				}
			}
		}
	}
}
MOTION
Frames: 5
Frame Time: 0.016667
0.000000 0.000000 0.000000 0.000000 0.000000 0.000000 -15.643442 -3.260739 -1.442452 23.973211 -7.758865 -4.109810 0.000000 0.000000 0.000000 0.000000 0.000000 0.000000 8.541720 -5.886625 -2.482489 54.607304 -0.783475 -2.555631 0.000000 0.000000 0.000000 0.000000 0.000000 0.000000 18.912134 4.135134 -3.676185 0.348253 -2.851243 -2.943990 0.469127 1.423321 -0.853745 -1.326987 2.710031 4.395799 11.131132 1.799876 5.280614 -11.169103 -28.010312 -10.497389 -27.822795 -32.144669 -63.191863 -6.069192 -37.601552 16.494010 0.000000 0.000000 0.000000 0.000000 0.000000 0.000000 -12.859693 33.900058 9.037464 -31.026723 33.810333 66.688256 -30.102622 28.531509 -9.688743 0.000000 0.000000 0.000000 0.000000 0.000000 0.000000 
0.000000 0.000000 0.000000 0.000000 0.000000 0.000000 -13.336685 -2.740874 -1.793737 24.329105 -8.640700 -3.829702 0.000000 0.000000 0.000000 0.000000 0.000000 0.000000 7.369491 -5.534504 -2.608401 57.653534 -0.871149 -2.254106 0.000000 0.000000 0.000000 0.000000 0.000000 0.000000 19.283227 3.810817 -3.531701 0.206596 -2.926896 -2.847318 0.243411 1.523818 -0.825137 -0.769781 3.145149 4.638540 11.938698 1.922707 4.887095 -12.192520 -30.815316 -9.040611 -28.459849 -33.069391 -58.337150 -7.532636 -39.292049 16.070535 0.000000 0.000000 0.000000 0.000000 0.000000 0.000000 -14.327880 36.281535 7.810305 -32.486047 35.222394 63.232901 -29.956973 31.484878 -9.860958 0.000000 0.000000 0.000000 0.000000 0.000000 0.000000 
0.000000 0.000000 0.000000 0.000000 0.000000 0.000000 -11.341343 -2.289352 -2.053993 24.663198 -9.615985 -3.573416 0.000000 0.000000 0.000000 0.000000 0.000000 0.000000 6.373459 -5.294054 -2.579608 59.720275 -0.808949 -1.726142 0.000000 0.000000 0.000000 0.000000 0.000000 0.000000 19.442337 3.384640 -3.215386 -0.156483 -3.036981 -2.834679 0.111276 1.509513 -0.861947 -0.073004 3.530283 5.059639 12.837722 1.976363 4.385391 -13.192242 -32.607242 -7.587189 -29.151954 -33.822724 -54.045496 -7.826304 -40.745133 16.924048 0.000000 0.000000 0.000000 0.000000 0.000000 0.000000 -15.724254 37.849373 6.272993 -33.988003 36.571410 59.586458 -28.865350 33.401421 -10.520453 0.000000 0.000000 0.000000 0.000000 0.000000 0.000000 
0.000000 0.000000 0.000000 0.000000 0.000000 0.000000 -9.429625 -1.998920 -2.223849 24.575228 -10.668032 -3.281325 0.000000 0.000000 0.000000 0.000000 0.000000 0.000000 5.289510 -4.984141 -2.328606 61.191531 -0.551439 -0.948908 0.000000 0.000000 0.000000 0.000000 0.000000 0.000000 19.384599 2.879532 -2.794463 -0.644322 -3.263268 -2.716888 0.063420 1.444809 -0.853606 0.782653 4.001938 5.461656 13.798326 2.043147 3.879167 -14.117899 -34.074687 -6.015923 -29.530921 -34.559681 -49.518054 -8.420668 -41.489369 17.597093 0.000000 0.000000 0.000000 0.000000 0.000000 0.000000 -16.879921 39.094199 4.591040 -35.398576 38.034889 55.325570 -26.959590 34.162243 -11.746350 0.000000 0.000000 0.000000 0.000000 0.000000 0.000000 
0.000000 0.000000 0.000000 0.000000 0.000000 0.000000 -7.515426 -1.811943 -2.290440 24.105124 -11.755093 -2.995950 0.000000 0.000000 0.000000 0.000000 0.000000 0.000000 4.231104 -4.740889 -2.046194 62.029984 -0.246367 -0.031225 0.000000 0.000000 0.000000 0.000000 0.000000 0.000000 19.174321 2.363646 -2.364775 -1.110534 -3.638817 -2.414874 0.118623 1.370630 -0.756895 1.833839 4.490080 5.665054 14.800975 2.056089 3.407851 -14.908033 -35.314325 -4.214752 -29.453214 -35.275400 -44.540741 -9.542181 -41.435604 17.638744 0.000000 0.000000 0.000000 0.000000 0.000000 0.000000 -17.672870 40.058946 2.886663 -36.628612 39.659638 50.296977 -24.470410 33.962598 -13.414568 0.000000 0.000000 0.000000 0.000000 0.000000 0.000000 
